<mxfile host="app.diagrams.net" agent="Mozilla/5.0 (Windows NT 10.0; Win64; x64) AppleWebKit/537.36 (KHTML, like Gecko) Chrome/132.0.0.0 Safari/537.36" version="26.0.11">
  <diagram name="Page-1" id="yvcJfXVVf1LnS-ic5ZBg">
    <mxGraphModel dx="2868" dy="1476" grid="1" gridSize="10" guides="1" tooltips="1" connect="1" arrows="1" fold="1" page="1" pageScale="1" pageWidth="827" pageHeight="1169" math="0" shadow="0">
      <root>
        <mxCell id="0" />
        <mxCell id="1" parent="0" />
        <mxCell id="77d3Yh58KOgCDk5mL9ar-6" style="rounded=0;orthogonalLoop=1;jettySize=auto;html=1;exitX=0.5;exitY=0.5;exitDx=0;exitDy=0;exitPerimeter=0;entryX=0;entryY=0.5;entryDx=0;entryDy=0;" edge="1" parent="1" source="77d3Yh58KOgCDk5mL9ar-2" target="77d3Yh58KOgCDk5mL9ar-5">
          <mxGeometry relative="1" as="geometry" />
        </mxCell>
        <mxCell id="77d3Yh58KOgCDk5mL9ar-2" value="Visiteur" style="shape=umlActor;verticalLabelPosition=bottom;verticalAlign=top;html=1;outlineConnect=0;" vertex="1" parent="1">
          <mxGeometry x="40" y="240" width="30" height="60" as="geometry" />
        </mxCell>
        <mxCell id="77d3Yh58KOgCDk5mL9ar-3" value="Inscription" style="ellipse;whiteSpace=wrap;html=1;" vertex="1" parent="1">
          <mxGeometry x="70" y="430" width="120" height="40" as="geometry" />
        </mxCell>
        <mxCell id="77d3Yh58KOgCDk5mL9ar-4" value="Connection" style="ellipse;whiteSpace=wrap;html=1;" vertex="1" parent="1">
          <mxGeometry x="254" y="430" width="160" height="40" as="geometry" />
        </mxCell>
        <mxCell id="77d3Yh58KOgCDk5mL9ar-5" value="Seléctionner un trajet et une date" style="ellipse;whiteSpace=wrap;html=1;" vertex="1" parent="1">
          <mxGeometry x="259" y="110" width="150" height="60" as="geometry" />
        </mxCell>
        <mxCell id="77d3Yh58KOgCDk5mL9ar-7" value="" style="edgeStyle=none;orthogonalLoop=1;jettySize=auto;html=1;rounded=0;entryX=0;entryY=0.5;entryDx=0;entryDy=0;exitX=0.5;exitY=0.5;exitDx=0;exitDy=0;exitPerimeter=0;" edge="1" parent="1" source="77d3Yh58KOgCDk5mL9ar-2" target="77d3Yh58KOgCDk5mL9ar-4">
          <mxGeometry width="100" relative="1" as="geometry">
            <mxPoint x="80" y="630" as="sourcePoint" />
            <mxPoint x="120" y="630" as="targetPoint" />
            <Array as="points" />
          </mxGeometry>
        </mxCell>
        <mxCell id="77d3Yh58KOgCDk5mL9ar-11" value="" style="edgeStyle=none;orthogonalLoop=1;jettySize=auto;html=1;rounded=0;entryX=0;entryY=0.5;entryDx=0;entryDy=0;exitX=0.5;exitY=0.5;exitDx=0;exitDy=0;exitPerimeter=0;" edge="1" parent="1" source="77d3Yh58KOgCDk5mL9ar-2" target="77d3Yh58KOgCDk5mL9ar-3">
          <mxGeometry width="100" relative="1" as="geometry">
            <mxPoint x="110" y="660" as="sourcePoint" />
            <mxPoint x="350" y="520" as="targetPoint" />
            <Array as="points" />
          </mxGeometry>
        </mxCell>
        <mxCell id="77d3Yh58KOgCDk5mL9ar-13" value="Utilisateur" style="shape=umlActor;verticalLabelPosition=bottom;verticalAlign=top;html=1;outlineConnect=0;" vertex="1" parent="1">
          <mxGeometry x="705" y="150" width="30" height="60" as="geometry" />
        </mxCell>
        <mxCell id="77d3Yh58KOgCDk5mL9ar-17" value="Afficher les trajets" style="ellipse;whiteSpace=wrap;html=1;" vertex="1" parent="1">
          <mxGeometry x="254" y="190" width="160" height="40" as="geometry" />
        </mxCell>
        <mxCell id="77d3Yh58KOgCDk5mL9ar-18" value="Sélectionner un trajet" style="ellipse;whiteSpace=wrap;html=1;" vertex="1" parent="1">
          <mxGeometry x="254" y="310" width="160" height="40" as="geometry" />
        </mxCell>
        <mxCell id="77d3Yh58KOgCDk5mL9ar-19" value="Afficher la page du&amp;nbsp;&lt;div&gt;chauffeur du trajet&lt;/div&gt;" style="ellipse;whiteSpace=wrap;html=1;" vertex="1" parent="1">
          <mxGeometry x="254" y="360" width="160" height="50" as="geometry" />
        </mxCell>
        <mxCell id="77d3Yh58KOgCDk5mL9ar-20" value="Filtrer les trajets" style="ellipse;whiteSpace=wrap;html=1;" vertex="1" parent="1">
          <mxGeometry x="254" y="250" width="160" height="40" as="geometry" />
        </mxCell>
        <mxCell id="77d3Yh58KOgCDk5mL9ar-21" value="Participer a un trajet" style="ellipse;whiteSpace=wrap;html=1;" vertex="1" parent="1">
          <mxGeometry x="254" y="490" width="160" height="40" as="geometry" />
        </mxCell>
        <mxCell id="77d3Yh58KOgCDk5mL9ar-22" value="Annuler un trajet" style="ellipse;whiteSpace=wrap;html=1;" vertex="1" parent="1">
          <mxGeometry x="254" y="545" width="160" height="40" as="geometry" />
        </mxCell>
        <mxCell id="77d3Yh58KOgCDk5mL9ar-23" value="Evaluer un trajet" style="ellipse;whiteSpace=wrap;html=1;" vertex="1" parent="1">
          <mxGeometry x="254" y="600" width="160" height="40" as="geometry" />
        </mxCell>
        <mxCell id="77d3Yh58KOgCDk5mL9ar-24" value="Historique trajet" style="ellipse;whiteSpace=wrap;html=1;" vertex="1" parent="1">
          <mxGeometry x="254" y="660" width="160" height="40" as="geometry" />
        </mxCell>
        <mxCell id="77d3Yh58KOgCDk5mL9ar-28" value="chauffeur" style="ellipse;whiteSpace=wrap;html=1;" vertex="1" parent="1">
          <mxGeometry x="480" y="220" width="160" height="40" as="geometry" />
        </mxCell>
        <mxCell id="77d3Yh58KOgCDk5mL9ar-29" value="passager" style="ellipse;whiteSpace=wrap;html=1;" vertex="1" parent="1">
          <mxGeometry x="480" y="120" width="160" height="40" as="geometry" />
        </mxCell>
        <mxCell id="77d3Yh58KOgCDk5mL9ar-30" value="Proposer un trajet&amp;nbsp;" style="ellipse;whiteSpace=wrap;html=1;" vertex="1" parent="1">
          <mxGeometry x="640" y="320" width="160" height="40" as="geometry" />
        </mxCell>
        <mxCell id="77d3Yh58KOgCDk5mL9ar-32" value="inscrire son véhicule" style="ellipse;whiteSpace=wrap;html=1;" vertex="1" parent="1">
          <mxGeometry x="640" y="270" width="160" height="40" as="geometry" />
        </mxCell>
        <mxCell id="77d3Yh58KOgCDk5mL9ar-33" value="Annuler un trajet" style="ellipse;whiteSpace=wrap;html=1;" vertex="1" parent="1">
          <mxGeometry x="640" y="380" width="160" height="40" as="geometry" />
        </mxCell>
        <mxCell id="77d3Yh58KOgCDk5mL9ar-34" value="Démarrer et&amp;nbsp;&lt;div&gt;finir le trajet&lt;/div&gt;" style="ellipse;whiteSpace=wrap;html=1;" vertex="1" parent="1">
          <mxGeometry x="640" y="440" width="160" height="40" as="geometry" />
        </mxCell>
        <mxCell id="77d3Yh58KOgCDk5mL9ar-35" value="Evaluer un trajet" style="ellipse;whiteSpace=wrap;html=1;" vertex="1" parent="1">
          <mxGeometry x="640" y="500" width="160" height="40" as="geometry" />
        </mxCell>
        <mxCell id="77d3Yh58KOgCDk5mL9ar-36" value="Historique trajet" style="ellipse;whiteSpace=wrap;html=1;" vertex="1" parent="1">
          <mxGeometry x="640" y="560" width="160" height="40" as="geometry" />
        </mxCell>
        <mxCell id="77d3Yh58KOgCDk5mL9ar-38" value="Employer" style="shape=umlActor;verticalLabelPosition=bottom;verticalAlign=top;html=1;outlineConnect=0;" vertex="1" parent="1">
          <mxGeometry x="545" y="740" width="30" height="60" as="geometry" />
        </mxCell>
        <mxCell id="77d3Yh58KOgCDk5mL9ar-39" value="Contrôle évaluation" style="ellipse;whiteSpace=wrap;html=1;" vertex="1" parent="1">
          <mxGeometry x="480" y="640" width="160" height="40" as="geometry" />
        </mxCell>
        <mxCell id="77d3Yh58KOgCDk5mL9ar-43" value="Administrateur" style="shape=umlActor;verticalLabelPosition=bottom;verticalAlign=top;html=1;outlineConnect=0;" vertex="1" parent="1">
          <mxGeometry x="60" y="740" width="30" height="60" as="geometry" />
        </mxCell>
        <mxCell id="77d3Yh58KOgCDk5mL9ar-44" value="gestion employé&lt;div&gt;et statiqtique&lt;/div&gt;" style="ellipse;whiteSpace=wrap;html=1;" vertex="1" parent="1">
          <mxGeometry x="240" y="760" width="160" height="40" as="geometry" />
        </mxCell>
      </root>
    </mxGraphModel>
  </diagram>
</mxfile>
